<svg xmlns="http://www.w3.org/2000/svg" width="32.723" height="26.757" viewBox="0 0 32.723 26.757">
  <g id="Group_19055" data-name="Group 19055" transform="translate(-38.497 -2647.243)">
    <path id="Icon_ionic-ios-heart-empty" data-name="Icon ionic-ios-heart-empty" d="M21.6,3.938h-.06a6.869,6.869,0,0,0-5.694,3.029,6.869,6.869,0,0,0-5.694-3.029h-.06a6.681,6.681,0,0,0-6.713,6.582A13.925,13.925,0,0,0,6.24,18.248a49.665,49.665,0,0,0,9.6,8.987,49.664,49.664,0,0,0,9.6-8.987,13.925,13.925,0,0,0,2.865-7.729A6.681,6.681,0,0,0,21.6,3.938Zm2.493,13.35a45.393,45.393,0,0,1-8.247,7.9,45.459,45.459,0,0,1-8.247-7.9,12.342,12.342,0,0,1-2.541-6.762A4.858,4.858,0,0,1,6.528,7.036,5.135,5.135,0,0,1,10.1,5.574h.054a5.173,5.173,0,0,1,4.285,2.289,1.711,1.711,0,0,0,2.817,0A5.232,5.232,0,0,1,19.078,6.2a5.139,5.139,0,0,1,2.463-.629H21.6a5.146,5.146,0,0,1,3.572,1.462,4.843,4.843,0,0,1,1.474,3.483A12.5,12.5,0,0,1,24.088,17.287Z" transform="translate(35.422 2643.605)" fill="#d9551c" stroke="#d9551c" stroke-width="0.6"/>
    <g id="Path_46691" data-name="Path 46691" transform="translate(49.802 2659.469) rotate(-22)" fill="#fff">
      <path d="M 12.84967422485352 14.97250080108643 C 12.79105377197266 14.97250080108643 12.73187446594238 14.96149063110352 12.67377376556396 14.93977069854736 L 9.048284530639648 13.58452033996582 C 8.835114479064941 13.50484085083008 8.611623764038086 13.464430809021 8.384034156799316 13.464430809021 C 8.156464576721191 13.464430809021 7.932983875274658 13.5048303604126 7.719814300537109 13.58451080322266 L 4.094334125518799 14.93972015380859 C 4.036253929138184 14.96143054962158 3.97706413269043 14.97244071960449 3.918434143066406 14.97244071960449 C 3.784104108810425 14.97244071960449 3.652334213256836 14.91460037231445 3.556914091110229 14.81375026702881 C 3.490864038467407 14.74394035339355 3.414204120635986 14.62359046936035 3.424004077911377 14.44665050506592 L 3.627763986587524 10.76839065551758 C 3.654484033584595 10.28596019744873 3.498394012451172 9.816230773925781 3.188244104385376 9.445740699768066 L 0.8167741298675537 6.61292028427124 C 0.6580641269683838 6.423340320587158 0.6994441151618958 6.220470428466797 0.7246041297912598 6.142050266265869 C 0.749764084815979 6.0636305809021 0.8341140747070312 5.874550342559814 1.073474049568176 5.812670230865479 L 4.761544227600098 4.859260559082031 C 5.213583946228027 4.742400646209717 5.605284214019775 4.464190483093262 5.864504337310791 4.075880527496338 L 7.970563888549805 0.9211204051971436 C 8.103764533996582 0.7215903997421265 8.304034233093262 0.700050413608551 8.383954048156738 0.700050413608551 C 8.463873863220215 0.700050413608551 8.664144515991211 0.7215903997421265 8.797353744506836 0.9211304187774658 L 10.90346431732178 4.075930595397949 C 11.16267395019531 4.464230537414551 11.55438423156738 4.742440223693848 12.00642395019531 4.85930061340332 L 15.69448375701904 5.812760353088379 C 15.93386363983154 5.874640464782715 16.01822471618652 6.063730239868164 16.04338455200195 6.142160415649414 C 16.06854438781738 6.220580577850342 16.10991477966309 6.423440456390381 15.9512243270874 6.613010406494141 L 13.57978439331055 9.445810317993164 C 13.26963424682617 9.816310882568359 13.11355400085449 10.28604030609131 13.14028453826904 10.76847076416016 L 13.34408378601074 14.4467306137085 C 13.35388374328613 14.62363052368164 13.27722454071045 14.74397087097168 13.21117401123047 14.81378078460693 C 13.11574363708496 14.91464042663574 12.98398399353027 14.97250080108643 12.84967422485352 14.97250080108643 Z" stroke="none"/>
      <path d="M 8.383951187133789 1.562626838684082 L 6.446694374084473 4.464520454406738 C 6.091824531555176 4.996129989624023 5.555583953857422 5.37700080871582 4.93674373626709 5.536980628967285 L 1.559782981872559 6.409965515136719 L 3.725004196166992 8.996410369873047 C 4.14958381652832 9.503610610961914 4.363274574279785 10.14665985107422 4.326694488525391 10.80710983276367 L 4.140110969543457 14.17530059814453 L 7.474674224853516 12.92884063720703 C 7.766493797302246 12.81974029541016 8.072443962097168 12.76443099975586 8.384034156799316 12.76443099975586 C 8.69559383392334 12.76443099975586 9.001543998718262 12.81974029541016 9.293394088745117 12.92884063720703 L 12.62797355651855 14.17534828186035 L 12.44136428833008 10.80720043182373 C 12.40475463867188 10.14675045013428 12.61843395233154 9.503690719604492 13.04303359985352 8.99647045135498 L 15.20821189880371 6.410059928894043 L 11.83122444152832 5.537020683288574 C 11.21240425109863 5.377050399780273 10.67615413665771 4.996190071105957 10.32126426696777 4.464590072631836 L 8.383951187133789 1.562626838684082 M 8.383947372436523 5.054473876953125e-05 C 8.763309478759766 5.054473876953125e-05 9.142560005187988 0.1774816513061523 9.379544258117676 0.532470703125 L 11.48564434051514 3.687270164489746 C 11.64900398254395 3.931970596313477 11.89676475524902 4.107940673828125 12.1816234588623 4.181580543518066 L 15.86969375610352 5.135040283203125 C 16.7213134765625 5.35520076751709 17.05259323120117 6.387880325317383 16.48797416687012 7.06234073638916 L 14.11653423309326 9.895140647888184 C 13.92154407501221 10.12807083129883 13.82240390777588 10.42642021179199 13.83921432495117 10.7297306060791 L 14.04301452636719 14.40800094604492 C 14.09079360961914 15.27025985717773 13.23759269714355 15.89784049987793 12.42867469787598 15.59546089172363 L 8.803184509277344 14.24021053314209 C 8.532895088195801 14.13917064666748 8.235195159912109 14.13916969299316 7.964903831481934 14.24020004272461 L 4.339433670043945 15.59541034698486 C 3.530503273010254 15.89777946472168 2.677304267883301 15.27019119262695 2.72507381439209 14.40793037414551 L 2.928833961486816 10.72967052459717 C 2.945633888244629 10.42636108398438 2.846493721008301 10.12800979614258 2.651494026184082 9.895071029663086 L 0.2800235748291016 7.062250137329102 C -0.2846050262451172 6.38778018951416 0.04666328430175781 5.355100631713867 0.8982744216918945 5.134950637817383 L 4.586343765258789 4.181540489196777 C 4.871193885803223 4.107900619506836 5.118953704833984 3.931930541992188 5.282303810119629 3.687230110168457 L 7.388374328613281 0.5324506759643555 C 7.625295639038086 0.1775588989257812 8.004677772521973 5.054473876953125e-05 8.383947372436523 5.054473876953125e-05 Z" stroke="none" fill="#d9981c"/>
    </g>
  </g>
</svg>
