<svg xmlns="http://www.w3.org/2000/svg" width="64.872" height="64.872" viewBox="0 0 64.872 64.872">
  <path id="home" d="M166.776,52.714V41.942c0-3.53-3.329-6.4-7.422-6.4H116.6c-4.093,0-7.422,2.871-7.422,6.4V52.713a3.769,3.769,0,0,0-3.635,3.541V87.975a3.166,3.166,0,0,0,3.163,3.163h.88v5.867a3.409,3.409,0,0,0,6.818,0V91.138h3.445v2.2a3.409,3.409,0,1,0,6.818,0v-2.2h22.625v2.2a3.409,3.409,0,1,0,6.818,0v-2.2h3.445V97a3.409,3.409,0,0,0,6.818,0V91.138h.88a3.166,3.166,0,0,0,3.163-3.163V56.254a3.77,3.77,0,0,0-3.635-3.541ZM116.6,37.634h42.758c2.939,0,5.329,1.933,5.329,4.308V52.7h-5.568a3.825,3.825,0,0,0-4.038,3.559V69.472h-34.2V56.254a3.826,3.826,0,0,0-4.038-3.559h-5.568V41.942c0-2.375,2.391-4.308,5.33-4.308Zm39.527,33.93h2.687a.969.969,0,0,1,.968.968v6.581a.969.969,0,0,1-.968.968H117.14a.969.969,0,0,1-.968-.968V72.532a.969.969,0,0,1,.968-.968h38.983ZM114.306,97a1.316,1.316,0,0,1-2.633,0V91.137h2.632Zm10.263-3.664a1.318,1.318,0,1,1-2.633,0v-2.2h2.633Zm29.442,0a1.318,1.318,0,1,1-2.633,0v-2.2h2.633ZM164.274,97a1.316,1.316,0,1,1-2.632,0V91.137h2.632V97Zm4.043-9.029a1.071,1.071,0,0,1-1.07,1.07H108.7a1.071,1.071,0,0,1-1.07-1.07V56.254c0-.795.891-1.466,1.946-1.466h7.257c1.055,0,1.946.671,1.946,1.466V69.472h-1.64a3.064,3.064,0,0,0-3.061,3.06v6.581a3.064,3.064,0,0,0,3.061,3.06h41.67a3.063,3.063,0,0,0,3.06-3.06V72.533a3.063,3.063,0,0,0-3.06-3.06h-1.641V56.254c0-.795.891-1.466,1.946-1.466h7.257c1.055,0,1.946.671,1.946,1.466ZM122.88,56.706a1.184,1.184,0,0,1,.041.355l-.188,8.213a3.408,3.408,0,0,0,3.364,3.477,3.454,3.454,0,0,0,1.037-.162l7.693-2.4a1.221,1.221,0,0,1,.5-.054l7.717.667a3.392,3.392,0,0,0,3.6-4.123l-1.876-8.352a1.138,1.138,0,0,1-.031-.3l.075-7.451a3.39,3.39,0,0,0-4.335-3.291l-7.743,2.244a1.191,1.191,0,0,1-.441.049l-7.827-.483a3.391,3.391,0,0,0-3.492,4.235Zm.374-9.051a1.23,1.23,0,0,1,.987-.473c.031,0,.063,0,.095,0l7.828.483a3.346,3.346,0,0,0,1.153-.127l7.743-2.244a1.3,1.3,0,0,1,1.66,1.261l-.075,7.452a3.217,3.217,0,0,0,.082.776l1.875,8.352a1.3,1.3,0,0,1-1.379,1.579l-7.718-.667a3.291,3.291,0,0,0-1.3.141l-7.694,2.4a1.3,1.3,0,0,1-1.686-1.27l.188-8.213a3.317,3.317,0,0,0-.107-.927L123,48.807a1.234,1.234,0,0,1,.256-1.152Z" transform="translate(-105.539 -35.542)" fill="#a9a9a9"/>
</svg>
