<svg xmlns="http://www.w3.org/2000/svg" width="18.178" height="15.656" viewBox="0 0 18.178 15.656">
  <path id="Icon_ionic-ios-heart-empty" data-name="Icon ionic-ios-heart-empty" d="M16.221,3.938h-.042a4.98,4.98,0,0,0-4.014,1.95A4.98,4.98,0,0,0,8.15,3.938H8.108A4.527,4.527,0,0,0,3.375,8.175a8.5,8.5,0,0,0,2.02,4.976,34.1,34.1,0,0,0,6.769,5.786,34.1,34.1,0,0,0,6.769-5.786,8.5,8.5,0,0,0,2.02-4.976A4.527,4.527,0,0,0,16.221,3.938Zm1.758,8.6a31,31,0,0,1-5.814,5.085A31.037,31.037,0,0,1,6.35,12.529,7.533,7.533,0,0,1,4.558,8.175,3,3,0,0,1,5.6,5.933a3.805,3.805,0,0,1,2.518-.941h.038A3.9,3.9,0,0,1,9.891,5.4a3.554,3.554,0,0,1,1.285,1.069,1.273,1.273,0,0,0,1.986,0A3.59,3.59,0,0,1,14.446,5.4a3.9,3.9,0,0,1,1.737-.405h.038a3.813,3.813,0,0,1,2.518.941,2.993,2.993,0,0,1,1.039,2.243A7.63,7.63,0,0,1,17.979,12.533Z" transform="translate(-3.075 -3.637)" fill="#a9a9a9" stroke="#a9a9a9" stroke-width="0.6"/>
</svg>
