<svg xmlns="http://www.w3.org/2000/svg" width="19.98" height="12.153" viewBox="0 0 19.98 12.153">
  <path id="Recently_Viewed" data-name="Recently Viewed" d="M134.887,154.276a3.716,3.716,0,1,0,3.468,3.707A3.6,3.6,0,0,0,134.887,154.276Zm0,6.086a2.384,2.384,0,1,1,2.226-2.379A2.309,2.309,0,0,1,134.887,160.363Zm9.734-2.764c-2.408-3.617-5.956-5.691-9.734-5.691s-7.326,2.075-9.734,5.691l-.256.385.256.385c2.408,3.617,5.956,5.692,9.734,5.692s7.326-2.074,9.734-5.691l.256-.385Zm-9.734,5.133a10.488,10.488,0,0,1-8.456-4.748,9.9,9.9,0,0,1,16.912,0A10.488,10.488,0,0,1,134.887,162.732Z" transform="translate(-124.897 -151.907)" fill="#a9a9a9"/>
</svg>
