<svg xmlns="http://www.w3.org/2000/svg" width="12.8" height="16.167" viewBox="0 0 12.8 16.167">
  <path id="Trending_Items" data-name="Trending Items" d="M236.24,129.317a5.027,5.027,0,0,0-2.319-3.305,4.163,4.163,0,0,1-1.219-1.134,4.263,4.263,0,0,1-.482-1.06,4.119,4.119,0,0,1-.238-1.377,4.221,4.221,0,0,1,.079-.788v-.459l-.04-.079v-.04l-.051-.074-.045-.057-.062-.051-.057-.051-.153-.045-.068-.034-.074-.028h-.436l-.085.028h-.119a6.891,6.891,0,0,0-2.642,2.795,7.02,7.02,0,0,0-.544,1.343,6.724,6.724,0,0,0-.249,1.814v.25a4.729,4.729,0,0,1-.522-.9,3.485,3.485,0,0,1-.164-.425.816.816,0,0,0-.629-.539.805.805,0,0,0-.777.289,8.362,8.362,0,0,0-1.7,4.195,6.04,6.04,0,0,0-.091.913v.085a6.4,6.4,0,0,0,12.8.011v-.1a7.849,7.849,0,0,0-.068-.9c-.011-.1-.028-.193-.045-.283Zm-1.508,1.241a4.9,4.9,0,0,1-.385,1.831,4.779,4.779,0,0,1-9.172-1.831V130.5a4.843,4.843,0,0,1,.057-.7,6.987,6.987,0,0,1,.646-2.234,6.489,6.489,0,0,0,2.483,2.268.811.811,0,0,0,1.117-1.037,5.183,5.183,0,0,1-.425-2.069,5.341,5.341,0,0,1,.187-1.383,4.943,4.943,0,0,1,.391-1,5.135,5.135,0,0,1,.765-1.105,5.579,5.579,0,0,0,.267,1.134,5.794,5.794,0,0,0,2.421,3.033,3.4,3.4,0,0,1,1.564,2.234v.182a5.362,5.362,0,0,1,.057.68Z" transform="translate(-223.553 -120.734)" fill="#a9a9a9"/>
</svg>
